# xmcd
#
# Track frame offsets:
#	150
#	11049
#	25321
#	40594
#	56476
#	67156
#	84999
#	103831
#	128370
#	146639
#	174354
#	191763
#	207327
#	230632
#
# Disc length: 3343 seconds
#
# Revision: 2
# Processed by: cddbd v1.5.2PL0 Copyright (c) Steve Scherf et al.
# Submitted via: EasyCDDAExtractor 15.3.0.1
#
DISCID=bf0d0d0e
DTITLE=Micheal Jerome Brown - Live At Main Hall
DYEAR=2007
DGENRE=Blues Root
TTITLE0=Play A Little While
TTITLE1=Sugar Baby
TTITLE2=Old Smokey
TTITLE3=Rambling Blues
TTITLE4=Chicken Stuff
TTITLE5=Sit Down Baby
TTITLE6=Coll Drink Of Water
TTITLE7=Dearest Darling
TTITLE8=Work For Your Money
TTITLE9=Ball And Chain
TTITLE10=The`Voodoo Music
TTITLE11=Please Help
TTITLE12=Lucille
TTITLE13=Don't Hang My Clothes On No Barb Wire Line
EXTD=
EXTT0=
EXTT1=
EXTT2=
EXTT3=
EXTT4=
EXTT5=
EXTT6=
EXTT7=
EXTT8=
EXTT9=
EXTT10=
EXTT11=
EXTT12=
EXTT13=
PLAYORDER=
